# xmcd CD database file
#
# Track frame offsets:
#	150
#	10392
#	20440
#	31867
#	42427
#	52422
#	70385
#	79775
#	91320
#	101420
#	111305
#	122557
#	133880
#	145267
#	157192
#	172632
#	188515
#	201777
#	216832
#	227915
#	239972
#	251882
#	266420
#
# Disc length: 3738 seconds
#
# Revision: 1
# Processed by: cddbd v1.5.1PL2 Copyright (c) Steve Scherf et al.
# Submitted via: Feurio! 1.68 - http://www.feurio.com
#
DISCID=520e9817
DTITLE=Eddie Wilson - Dankeschön, bitteschön, Wiedersehen -(CD 1)-(Deutsch)
DYEAR=1993
DGENRE=Country
TTITLE0=Dankeschön, bitteschön, wiedersehen -1961
TTITLE1=Ich bin froh, daß ich dich los bin -1961
TTITLE2=Ich bin ja nur ein Tramp -1963
TTITLE3=Sie hat das gewisse Etwas  -1963
TTITLE4=Rheinländer Waltz -1963
TTITLE5=Noch drei lange Stunden -1963
TTITLE6=Beim letzten Sonnenstrahl -1963
TTITLE7=Fraulein -1963
TTITLE8=Die Story vom tapferen Cowboy -1963
TTITLE9=Wahre Liebe fand ich erst am Neckarstrand -1963
TTITLE10=Schenk ihr Geld und Gold -1963
TTITLE11=Es dauert lange, bis man so etwas vergißt -1963
TTITLE12=Sadie war 'ne Lady -1965
TTITLE13=Das Herz einer Mutter -1965
TTITLE14=Welch ein Freund ist unser Jesus -1965
TTITLE15=I Wonder Where You Are Tonight - 1993
TTITLE16=I Forgot To Remember To Forget - 1993
TTITLE17=Tomorrow Never Comes - 1993
TTITLE18=Wildes Pferd - 1993
TTITLE19=Yesterday Too Wings - 1993
TTITLE20=Gestern ist vorbei - 1993
TTITLE21=Hoffnungslos - 1993
TTITLE22=Cäcilie Du Entschwandest
EXTD=AAD-Bear Family Records-1993 -(BCD 15615 BH)
EXTT0=
EXTT1=
EXTT2=
EXTT3=
EXTT4=
EXTT5=
EXTT6=
EXTT7=
EXTT8=
EXTT9=
EXTT10=
EXTT11=
EXTT12=
EXTT13=
EXTT14=
EXTT15=
EXTT16=
EXTT17=
EXTT18=
EXTT19=
EXTT20=
EXTT21=
EXTT22=
PLAYORDER=
